<mxfile host="app.diagrams.net" modified="2020-11-02T10:47:58.460Z" agent="5.0 (Windows NT 10.0; Win64; x64) AppleWebKit/537.36 (KHTML, like Gecko) Chrome/86.0.4240.111 Safari/537.36" etag="1V1Z5VrDVpUXGNYwKt-D" version="13.7.7" type="github" pages="2">
  <diagram id="3gya9Hsz-CeiQLotCNRs" name="Page-1">
    <mxGraphModel dx="2105" dy="1749" grid="1" gridSize="10" guides="1" tooltips="1" connect="1" arrows="1" fold="1" page="1" pageScale="1" pageWidth="827" pageHeight="1169" math="0" shadow="0">
      <root>
        <mxCell id="0" />
        <mxCell id="1" parent="0" />
        <mxCell id="idTjBI_8EWhqLSjGhgTQ-156" value="" style="ellipse;whiteSpace=wrap;html=1;" parent="1" vertex="1">
          <mxGeometry x="293" y="830" width="136" height="60" as="geometry" />
        </mxCell>
        <mxCell id="idTjBI_8EWhqLSjGhgTQ-108" value="Kontaktperson" style="ellipse;whiteSpace=wrap;html=1;" parent="1" vertex="1">
          <mxGeometry x="-80" y="320" width="120" height="40" as="geometry" />
        </mxCell>
        <mxCell id="idTjBI_8EWhqLSjGhgTQ-97" value="" style="ellipse;whiteSpace=wrap;html=1;" parent="1" vertex="1">
          <mxGeometry x="92.5" y="570" width="135" height="60" as="geometry" />
        </mxCell>
        <mxCell id="idTjBI_8EWhqLSjGhgTQ-93" value="" style="ellipse;whiteSpace=wrap;html=1;" parent="1" vertex="1">
          <mxGeometry x="500" y="570" width="135" height="60" as="geometry" />
        </mxCell>
        <mxCell id="idTjBI_8EWhqLSjGhgTQ-2" value="Arbeidsgiver" style="rounded=0;whiteSpace=wrap;html=1;" parent="1" vertex="1">
          <mxGeometry x="40" y="240" width="120" height="40" as="geometry" />
        </mxCell>
        <mxCell id="idTjBI_8EWhqLSjGhgTQ-4" value="Arbeidstaker" style="rounded=0;whiteSpace=wrap;html=1;" parent="1" vertex="1">
          <mxGeometry x="640" y="240" width="120" height="40" as="geometry" />
        </mxCell>
        <mxCell id="idTjBI_8EWhqLSjGhgTQ-5" value="Nyutdanna.no" style="rounded=0;whiteSpace=wrap;html=1;" parent="1" vertex="1">
          <mxGeometry x="320" y="240" width="120" height="40" as="geometry" />
        </mxCell>
        <mxCell id="idTjBI_8EWhqLSjGhgTQ-6" value="&lt;u&gt;Brukernummer&lt;/u&gt;" style="ellipse;whiteSpace=wrap;html=1;" parent="1" vertex="1">
          <mxGeometry x="110" y="140" width="120" height="40" as="geometry" />
        </mxCell>
        <mxCell id="idTjBI_8EWhqLSjGhgTQ-8" value="Telefonnummer" style="ellipse;whiteSpace=wrap;html=1;" parent="1" vertex="1">
          <mxGeometry x="-240" y="430" width="120" height="40" as="geometry" />
        </mxCell>
        <mxCell id="idTjBI_8EWhqLSjGhgTQ-9" value="E-postadresse" style="ellipse;whiteSpace=wrap;html=1;direction=west;" parent="1" vertex="1">
          <mxGeometry x="-370" y="420" width="120" height="40" as="geometry" />
        </mxCell>
        <mxCell id="idTjBI_8EWhqLSjGhgTQ-10" value="" style="endArrow=none;html=1;entryX=0;entryY=1;entryDx=0;entryDy=0;exitX=1;exitY=0;exitDx=0;exitDy=0;" parent="1" source="idTjBI_8EWhqLSjGhgTQ-8" target="idTjBI_8EWhqLSjGhgTQ-108" edge="1">
          <mxGeometry width="50" height="50" relative="1" as="geometry">
            <mxPoint x="10" y="230" as="sourcePoint" />
            <mxPoint x="440" y="270" as="targetPoint" />
          </mxGeometry>
        </mxCell>
        <mxCell id="idTjBI_8EWhqLSjGhgTQ-11" value="" style="endArrow=none;html=1;entryX=0.5;entryY=1;entryDx=0;entryDy=0;exitX=0.5;exitY=1;exitDx=0;exitDy=0;" parent="1" source="idTjBI_8EWhqLSjGhgTQ-9" target="idTjBI_8EWhqLSjGhgTQ-108" edge="1">
          <mxGeometry width="50" height="50" relative="1" as="geometry">
            <mxPoint x="390" y="320" as="sourcePoint" />
            <mxPoint x="440" y="270" as="targetPoint" />
          </mxGeometry>
        </mxCell>
        <mxCell id="idTjBI_8EWhqLSjGhgTQ-12" value="" style="endArrow=none;html=1;exitX=0.5;exitY=1;exitDx=0;exitDy=0;entryX=0.75;entryY=0;entryDx=0;entryDy=0;" parent="1" source="idTjBI_8EWhqLSjGhgTQ-6" target="idTjBI_8EWhqLSjGhgTQ-2" edge="1">
          <mxGeometry width="50" height="50" relative="1" as="geometry">
            <mxPoint x="390" y="320" as="sourcePoint" />
            <mxPoint x="440" y="270" as="targetPoint" />
          </mxGeometry>
        </mxCell>
        <mxCell id="idTjBI_8EWhqLSjGhgTQ-13" value="bruker" style="rhombus;whiteSpace=wrap;html=1;" parent="1" vertex="1">
          <mxGeometry x="210" y="235" width="60" height="50" as="geometry" />
        </mxCell>
        <mxCell id="idTjBI_8EWhqLSjGhgTQ-14" value="" style="endArrow=none;html=1;exitX=1;exitY=0.5;exitDx=0;exitDy=0;entryX=0;entryY=0.5;entryDx=0;entryDy=0;" parent="1" source="idTjBI_8EWhqLSjGhgTQ-2" target="idTjBI_8EWhqLSjGhgTQ-13" edge="1">
          <mxGeometry width="50" height="50" relative="1" as="geometry">
            <mxPoint x="390" y="320" as="sourcePoint" />
            <mxPoint x="440" y="270" as="targetPoint" />
          </mxGeometry>
        </mxCell>
        <mxCell id="idTjBI_8EWhqLSjGhgTQ-15" value="" style="endArrow=none;html=1;exitX=1;exitY=0.5;exitDx=0;exitDy=0;entryX=0;entryY=0.5;entryDx=0;entryDy=0;" parent="1" source="idTjBI_8EWhqLSjGhgTQ-13" target="idTjBI_8EWhqLSjGhgTQ-5" edge="1">
          <mxGeometry width="50" height="50" relative="1" as="geometry">
            <mxPoint x="390" y="320" as="sourcePoint" />
            <mxPoint x="440" y="270" as="targetPoint" />
          </mxGeometry>
        </mxCell>
        <mxCell id="idTjBI_8EWhqLSjGhgTQ-16" value="ser på" style="rhombus;whiteSpace=wrap;html=1;" parent="1" vertex="1">
          <mxGeometry x="510" y="235" width="60" height="50" as="geometry" />
        </mxCell>
        <mxCell id="idTjBI_8EWhqLSjGhgTQ-17" value="" style="endArrow=none;html=1;entryX=0;entryY=0.5;entryDx=0;entryDy=0;exitX=1;exitY=0.5;exitDx=0;exitDy=0;" parent="1" source="idTjBI_8EWhqLSjGhgTQ-5" target="idTjBI_8EWhqLSjGhgTQ-16" edge="1">
          <mxGeometry width="50" height="50" relative="1" as="geometry">
            <mxPoint x="410" y="310" as="sourcePoint" />
            <mxPoint x="440" y="270" as="targetPoint" />
          </mxGeometry>
        </mxCell>
        <mxCell id="idTjBI_8EWhqLSjGhgTQ-18" value="" style="endArrow=none;html=1;entryX=0;entryY=0.5;entryDx=0;entryDy=0;exitX=1;exitY=0.5;exitDx=0;exitDy=0;" parent="1" source="idTjBI_8EWhqLSjGhgTQ-16" target="idTjBI_8EWhqLSjGhgTQ-4" edge="1">
          <mxGeometry width="50" height="50" relative="1" as="geometry">
            <mxPoint x="390" y="320" as="sourcePoint" />
            <mxPoint x="440" y="270" as="targetPoint" />
          </mxGeometry>
        </mxCell>
        <mxCell id="idTjBI_8EWhqLSjGhgTQ-19" value="Annonse" style="rounded=0;whiteSpace=wrap;html=1;" parent="1" vertex="1">
          <mxGeometry x="320" y="400" width="120" height="40" as="geometry" />
        </mxCell>
        <mxCell id="idTjBI_8EWhqLSjGhgTQ-20" value="" style="endArrow=none;html=1;exitX=1;exitY=0.5;exitDx=0;exitDy=0;entryX=0;entryY=1;entryDx=0;entryDy=0;" parent="1" source="idTjBI_8EWhqLSjGhgTQ-19" target="idTjBI_8EWhqLSjGhgTQ-21" edge="1">
          <mxGeometry width="50" height="50" relative="1" as="geometry">
            <mxPoint x="410" y="420" as="sourcePoint" />
            <mxPoint x="460" y="370" as="targetPoint" />
          </mxGeometry>
        </mxCell>
        <mxCell id="idTjBI_8EWhqLSjGhgTQ-21" value="søker på" style="rhombus;whiteSpace=wrap;html=1;" parent="1" vertex="1">
          <mxGeometry x="505" y="330" width="70" height="60" as="geometry" />
        </mxCell>
        <mxCell id="idTjBI_8EWhqLSjGhgTQ-22" value="" style="endArrow=none;html=1;entryX=0.25;entryY=1;entryDx=0;entryDy=0;exitX=1;exitY=0;exitDx=0;exitDy=0;" parent="1" source="idTjBI_8EWhqLSjGhgTQ-21" target="idTjBI_8EWhqLSjGhgTQ-4" edge="1">
          <mxGeometry width="50" height="50" relative="1" as="geometry">
            <mxPoint x="593" y="345" as="sourcePoint" />
            <mxPoint x="460" y="370" as="targetPoint" />
          </mxGeometry>
        </mxCell>
        <mxCell id="idTjBI_8EWhqLSjGhgTQ-23" value="legger ut" style="rhombus;whiteSpace=wrap;html=1;" parent="1" vertex="1">
          <mxGeometry x="190" y="320" width="60" height="50" as="geometry" />
        </mxCell>
        <mxCell id="idTjBI_8EWhqLSjGhgTQ-26" value="" style="endArrow=none;html=1;entryX=0.75;entryY=1;entryDx=0;entryDy=0;exitX=0;exitY=0;exitDx=0;exitDy=0;" parent="1" source="idTjBI_8EWhqLSjGhgTQ-23" target="idTjBI_8EWhqLSjGhgTQ-2" edge="1">
          <mxGeometry width="50" height="50" relative="1" as="geometry">
            <mxPoint x="410" y="430" as="sourcePoint" />
            <mxPoint x="460" y="380" as="targetPoint" />
          </mxGeometry>
        </mxCell>
        <mxCell id="idTjBI_8EWhqLSjGhgTQ-27" value="" style="endArrow=none;html=1;exitX=1;exitY=1;exitDx=0;exitDy=0;entryX=0;entryY=0.5;entryDx=0;entryDy=0;" parent="1" source="idTjBI_8EWhqLSjGhgTQ-23" target="idTjBI_8EWhqLSjGhgTQ-19" edge="1">
          <mxGeometry width="50" height="50" relative="1" as="geometry">
            <mxPoint x="410" y="430" as="sourcePoint" />
            <mxPoint x="460" y="380" as="targetPoint" />
          </mxGeometry>
        </mxCell>
        <mxCell id="idTjBI_8EWhqLSjGhgTQ-28" value="inneholder" style="rhombus;whiteSpace=wrap;html=1;" parent="1" vertex="1">
          <mxGeometry x="344" y="320" width="70" height="50" as="geometry" />
        </mxCell>
        <mxCell id="idTjBI_8EWhqLSjGhgTQ-33" value="" style="endArrow=none;html=1;entryX=0.5;entryY=1;entryDx=0;entryDy=0;exitX=0.5;exitY=0;exitDx=0;exitDy=0;" parent="1" source="idTjBI_8EWhqLSjGhgTQ-19" target="idTjBI_8EWhqLSjGhgTQ-28" edge="1">
          <mxGeometry width="50" height="50" relative="1" as="geometry">
            <mxPoint x="410" y="430" as="sourcePoint" />
            <mxPoint x="460" y="380" as="targetPoint" />
          </mxGeometry>
        </mxCell>
        <mxCell id="idTjBI_8EWhqLSjGhgTQ-34" value="" style="endArrow=none;html=1;entryX=0.5;entryY=1;entryDx=0;entryDy=0;exitX=0.5;exitY=0;exitDx=0;exitDy=0;" parent="1" source="idTjBI_8EWhqLSjGhgTQ-28" target="idTjBI_8EWhqLSjGhgTQ-5" edge="1">
          <mxGeometry width="50" height="50" relative="1" as="geometry">
            <mxPoint x="410" y="430" as="sourcePoint" />
            <mxPoint x="460" y="380" as="targetPoint" />
          </mxGeometry>
        </mxCell>
        <mxCell id="idTjBI_8EWhqLSjGhgTQ-35" value="Annonsetekst" style="ellipse;whiteSpace=wrap;html=1;" parent="1" vertex="1">
          <mxGeometry x="600" y="470" width="120" height="40" as="geometry" />
        </mxCell>
        <mxCell id="idTjBI_8EWhqLSjGhgTQ-36" value="Utdanningskrav" style="ellipse;whiteSpace=wrap;html=1;" parent="1" vertex="1">
          <mxGeometry x="510" y="580" width="120" height="40" as="geometry" />
        </mxCell>
        <mxCell id="idTjBI_8EWhqLSjGhgTQ-37" value="&lt;u&gt;Annonsenummer&lt;/u&gt;" style="ellipse;whiteSpace=wrap;html=1;" parent="1" vertex="1">
          <mxGeometry x="110" y="440" width="120" height="40" as="geometry" />
        </mxCell>
        <mxCell id="idTjBI_8EWhqLSjGhgTQ-39" value="nivå" style="ellipse;whiteSpace=wrap;html=1;" parent="1" vertex="1">
          <mxGeometry x="707" y="700" width="120" height="40" as="geometry" />
        </mxCell>
        <mxCell id="idTjBI_8EWhqLSjGhgTQ-40" value="fagfelt" style="ellipse;whiteSpace=wrap;html=1;direction=east;" parent="1" vertex="1">
          <mxGeometry x="620" y="780" width="120" height="40" as="geometry" />
        </mxCell>
        <mxCell id="idTjBI_8EWhqLSjGhgTQ-41" style="edgeStyle=orthogonalEdgeStyle;rounded=0;orthogonalLoop=1;jettySize=auto;html=1;exitX=0.5;exitY=1;exitDx=0;exitDy=0;" parent="1" source="idTjBI_8EWhqLSjGhgTQ-38" target="idTjBI_8EWhqLSjGhgTQ-38" edge="1">
          <mxGeometry relative="1" as="geometry" />
        </mxCell>
        <mxCell id="idTjBI_8EWhqLSjGhgTQ-42" value="" style="endArrow=none;html=1;exitX=1;exitY=0.5;exitDx=0;exitDy=0;entryX=0;entryY=1;entryDx=0;entryDy=0;" parent="1" source="idTjBI_8EWhqLSjGhgTQ-37" target="idTjBI_8EWhqLSjGhgTQ-19" edge="1">
          <mxGeometry width="50" height="50" relative="1" as="geometry">
            <mxPoint x="440" y="450" as="sourcePoint" />
            <mxPoint x="300" y="440" as="targetPoint" />
          </mxGeometry>
        </mxCell>
        <mxCell id="idTjBI_8EWhqLSjGhgTQ-43" value="" style="endArrow=none;html=1;exitX=0.519;exitY=0;exitDx=0;exitDy=0;entryX=0.25;entryY=1;entryDx=0;entryDy=0;exitPerimeter=0;" parent="1" source="idTjBI_8EWhqLSjGhgTQ-97" target="idTjBI_8EWhqLSjGhgTQ-19" edge="1">
          <mxGeometry width="50" height="50" relative="1" as="geometry">
            <mxPoint x="440" y="450" as="sourcePoint" />
            <mxPoint x="490" y="400" as="targetPoint" />
          </mxGeometry>
        </mxCell>
        <mxCell id="idTjBI_8EWhqLSjGhgTQ-44" value="" style="endArrow=none;html=1;exitX=0.5;exitY=0;exitDx=0;exitDy=0;entryX=0.75;entryY=1;entryDx=0;entryDy=0;" parent="1" source="idTjBI_8EWhqLSjGhgTQ-93" target="idTjBI_8EWhqLSjGhgTQ-19" edge="1">
          <mxGeometry width="50" height="50" relative="1" as="geometry">
            <mxPoint x="440" y="450" as="sourcePoint" />
            <mxPoint x="490" y="400" as="targetPoint" />
          </mxGeometry>
        </mxCell>
        <mxCell id="idTjBI_8EWhqLSjGhgTQ-45" value="" style="endArrow=none;html=1;exitX=0;exitY=0.5;exitDx=0;exitDy=0;entryX=1;entryY=1;entryDx=0;entryDy=0;" parent="1" source="idTjBI_8EWhqLSjGhgTQ-35" target="idTjBI_8EWhqLSjGhgTQ-19" edge="1">
          <mxGeometry width="50" height="50" relative="1" as="geometry">
            <mxPoint x="440" y="450" as="sourcePoint" />
            <mxPoint x="490" y="400" as="targetPoint" />
          </mxGeometry>
        </mxCell>
        <mxCell id="idTjBI_8EWhqLSjGhgTQ-46" value="" style="endArrow=none;html=1;exitX=0.5;exitY=0;exitDx=0;exitDy=0;entryX=1;entryY=1;entryDx=0;entryDy=0;" parent="1" source="idTjBI_8EWhqLSjGhgTQ-40" target="idTjBI_8EWhqLSjGhgTQ-93" edge="1">
          <mxGeometry width="50" height="50" relative="1" as="geometry">
            <mxPoint x="440" y="450" as="sourcePoint" />
            <mxPoint x="490" y="400" as="targetPoint" />
          </mxGeometry>
        </mxCell>
        <mxCell id="idTjBI_8EWhqLSjGhgTQ-47" value="" style="endArrow=none;html=1;exitX=0;exitY=0.5;exitDx=0;exitDy=0;entryX=1;entryY=0.5;entryDx=0;entryDy=0;" parent="1" source="idTjBI_8EWhqLSjGhgTQ-39" target="idTjBI_8EWhqLSjGhgTQ-93" edge="1">
          <mxGeometry width="50" height="50" relative="1" as="geometry">
            <mxPoint x="440" y="450" as="sourcePoint" />
            <mxPoint x="490" y="400" as="targetPoint" />
          </mxGeometry>
        </mxCell>
        <mxCell id="idTjBI_8EWhqLSjGhgTQ-48" value="fylke" style="ellipse;whiteSpace=wrap;html=1;" parent="1" vertex="1">
          <mxGeometry x="-110" y="640" width="120" height="40" as="geometry" />
        </mxCell>
        <mxCell id="idTjBI_8EWhqLSjGhgTQ-49" value="kommune" style="ellipse;whiteSpace=wrap;html=1;" parent="1" vertex="1">
          <mxGeometry x="-10" y="730" width="120" height="40" as="geometry" />
        </mxCell>
        <mxCell id="idTjBI_8EWhqLSjGhgTQ-53" value="" style="endArrow=none;html=1;exitX=1;exitY=0.5;exitDx=0;exitDy=0;entryX=0;entryY=0.5;entryDx=0;entryDy=0;" parent="1" source="idTjBI_8EWhqLSjGhgTQ-48" target="idTjBI_8EWhqLSjGhgTQ-97" edge="1">
          <mxGeometry width="50" height="50" relative="1" as="geometry">
            <mxPoint x="370" y="480" as="sourcePoint" />
            <mxPoint x="420" y="430" as="targetPoint" />
          </mxGeometry>
        </mxCell>
        <mxCell id="idTjBI_8EWhqLSjGhgTQ-54" value="Om stilling" style="ellipse;whiteSpace=wrap;html=1;" parent="1" vertex="1">
          <mxGeometry x="810" y="470" width="120" height="40" as="geometry" />
        </mxCell>
        <mxCell id="idTjBI_8EWhqLSjGhgTQ-55" value="Om arbeidgiver" style="ellipse;whiteSpace=wrap;html=1;" parent="1" vertex="1">
          <mxGeometry x="760" y="545" width="120" height="43" as="geometry" />
        </mxCell>
        <mxCell id="idTjBI_8EWhqLSjGhgTQ-56" value="" style="endArrow=none;html=1;entryX=0;entryY=0.5;entryDx=0;entryDy=0;exitX=1;exitY=0.5;exitDx=0;exitDy=0;" parent="1" source="idTjBI_8EWhqLSjGhgTQ-35" target="idTjBI_8EWhqLSjGhgTQ-54" edge="1">
          <mxGeometry width="50" height="50" relative="1" as="geometry">
            <mxPoint x="310" y="380" as="sourcePoint" />
            <mxPoint x="360" y="330" as="targetPoint" />
          </mxGeometry>
        </mxCell>
        <mxCell id="idTjBI_8EWhqLSjGhgTQ-57" value="" style="endArrow=none;html=1;entryX=0;entryY=0.5;entryDx=0;entryDy=0;exitX=1;exitY=0.5;exitDx=0;exitDy=0;" parent="1" source="idTjBI_8EWhqLSjGhgTQ-35" target="idTjBI_8EWhqLSjGhgTQ-55" edge="1">
          <mxGeometry width="50" height="50" relative="1" as="geometry">
            <mxPoint x="310" y="380" as="sourcePoint" />
            <mxPoint x="360" y="330" as="targetPoint" />
          </mxGeometry>
        </mxCell>
        <mxCell id="idTjBI_8EWhqLSjGhgTQ-58" value="&lt;u&gt;Søkernummer&lt;/u&gt;" style="ellipse;whiteSpace=wrap;html=1;" parent="1" vertex="1">
          <mxGeometry x="680" y="120" width="120" height="40" as="geometry" />
        </mxCell>
        <mxCell id="idTjBI_8EWhqLSjGhgTQ-59" value="Navn" style="ellipse;whiteSpace=wrap;html=1;" parent="1" vertex="1">
          <mxGeometry x="820" y="200" width="120" height="40" as="geometry" />
        </mxCell>
        <mxCell id="idTjBI_8EWhqLSjGhgTQ-60" value="E-postadresse" style="ellipse;whiteSpace=wrap;html=1;" parent="1" vertex="1">
          <mxGeometry x="520" y="120" width="120" height="40" as="geometry" />
        </mxCell>
        <mxCell id="idTjBI_8EWhqLSjGhgTQ-61" value="Telefonnummer" style="ellipse;whiteSpace=wrap;html=1;" parent="1" vertex="1">
          <mxGeometry x="820" y="280" width="120" height="40" as="geometry" />
        </mxCell>
        <mxCell id="idTjBI_8EWhqLSjGhgTQ-62" value="Bedriftsnavn" style="ellipse;whiteSpace=wrap;html=1;" parent="1" vertex="1">
          <mxGeometry x="-150" y="120" width="120" height="40" as="geometry" />
        </mxCell>
        <mxCell id="idTjBI_8EWhqLSjGhgTQ-63" value="" style="endArrow=none;html=1;entryX=0.5;entryY=1;entryDx=0;entryDy=0;exitX=0.25;exitY=0;exitDx=0;exitDy=0;" parent="1" source="idTjBI_8EWhqLSjGhgTQ-4" target="idTjBI_8EWhqLSjGhgTQ-60" edge="1">
          <mxGeometry width="50" height="50" relative="1" as="geometry">
            <mxPoint x="310" y="480" as="sourcePoint" />
            <mxPoint x="360" y="430" as="targetPoint" />
          </mxGeometry>
        </mxCell>
        <mxCell id="idTjBI_8EWhqLSjGhgTQ-64" value="" style="endArrow=none;html=1;entryX=0.5;entryY=1;entryDx=0;entryDy=0;exitX=0.5;exitY=0;exitDx=0;exitDy=0;" parent="1" source="idTjBI_8EWhqLSjGhgTQ-4" target="idTjBI_8EWhqLSjGhgTQ-58" edge="1">
          <mxGeometry width="50" height="50" relative="1" as="geometry">
            <mxPoint x="310" y="480" as="sourcePoint" />
            <mxPoint x="360" y="430" as="targetPoint" />
          </mxGeometry>
        </mxCell>
        <mxCell id="idTjBI_8EWhqLSjGhgTQ-65" value="" style="endArrow=none;html=1;entryX=0;entryY=0.5;entryDx=0;entryDy=0;exitX=1;exitY=0;exitDx=0;exitDy=0;" parent="1" source="idTjBI_8EWhqLSjGhgTQ-4" target="idTjBI_8EWhqLSjGhgTQ-59" edge="1">
          <mxGeometry width="50" height="50" relative="1" as="geometry">
            <mxPoint x="310" y="480" as="sourcePoint" />
            <mxPoint x="360" y="430" as="targetPoint" />
          </mxGeometry>
        </mxCell>
        <mxCell id="idTjBI_8EWhqLSjGhgTQ-66" value="Fornavn" style="ellipse;whiteSpace=wrap;html=1;" parent="1" vertex="1">
          <mxGeometry x="910" y="120" width="120" height="40" as="geometry" />
        </mxCell>
        <mxCell id="idTjBI_8EWhqLSjGhgTQ-67" value="Etternavn" style="ellipse;whiteSpace=wrap;html=1;" parent="1" vertex="1">
          <mxGeometry x="980" y="200" width="120" height="40" as="geometry" />
        </mxCell>
        <mxCell id="idTjBI_8EWhqLSjGhgTQ-68" value="" style="endArrow=none;html=1;entryX=0;entryY=0.5;entryDx=0;entryDy=0;exitX=1;exitY=1;exitDx=0;exitDy=0;" parent="1" source="idTjBI_8EWhqLSjGhgTQ-4" target="idTjBI_8EWhqLSjGhgTQ-61" edge="1">
          <mxGeometry width="50" height="50" relative="1" as="geometry">
            <mxPoint x="310" y="480" as="sourcePoint" />
            <mxPoint x="360" y="430" as="targetPoint" />
          </mxGeometry>
        </mxCell>
        <mxCell id="idTjBI_8EWhqLSjGhgTQ-69" value="" style="endArrow=none;html=1;entryX=0.5;entryY=1;entryDx=0;entryDy=0;exitX=1;exitY=0;exitDx=0;exitDy=0;" parent="1" source="idTjBI_8EWhqLSjGhgTQ-59" target="idTjBI_8EWhqLSjGhgTQ-66" edge="1">
          <mxGeometry width="50" height="50" relative="1" as="geometry">
            <mxPoint x="310" y="480" as="sourcePoint" />
            <mxPoint x="360" y="430" as="targetPoint" />
          </mxGeometry>
        </mxCell>
        <mxCell id="idTjBI_8EWhqLSjGhgTQ-70" value="" style="endArrow=none;html=1;entryX=0;entryY=0.5;entryDx=0;entryDy=0;exitX=1;exitY=0.5;exitDx=0;exitDy=0;" parent="1" source="idTjBI_8EWhqLSjGhgTQ-59" target="idTjBI_8EWhqLSjGhgTQ-67" edge="1">
          <mxGeometry width="50" height="50" relative="1" as="geometry">
            <mxPoint x="310" y="480" as="sourcePoint" />
            <mxPoint x="360" y="430" as="targetPoint" />
          </mxGeometry>
        </mxCell>
        <mxCell id="idTjBI_8EWhqLSjGhgTQ-72" value="" style="endArrow=none;html=1;entryX=0.25;entryY=0;entryDx=0;entryDy=0;exitX=1;exitY=1;exitDx=0;exitDy=0;" parent="1" source="idTjBI_8EWhqLSjGhgTQ-62" target="idTjBI_8EWhqLSjGhgTQ-2" edge="1">
          <mxGeometry width="50" height="50" relative="1" as="geometry">
            <mxPoint x="-70" y="300" as="sourcePoint" />
            <mxPoint x="390" y="430" as="targetPoint" />
          </mxGeometry>
        </mxCell>
        <mxCell id="idTjBI_8EWhqLSjGhgTQ-73" value="N" style="text;html=1;align=center;verticalAlign=middle;resizable=0;points=[];autosize=1;" parent="1" vertex="1">
          <mxGeometry x="190" y="310" width="20" height="20" as="geometry" />
        </mxCell>
        <mxCell id="idTjBI_8EWhqLSjGhgTQ-75" value="M" style="text;html=1;align=center;verticalAlign=middle;resizable=0;points=[];autosize=1;" parent="1" vertex="1">
          <mxGeometry x="245" y="350" width="30" height="20" as="geometry" />
        </mxCell>
        <mxCell id="idTjBI_8EWhqLSjGhgTQ-76" value="N" style="text;html=1;align=center;verticalAlign=middle;resizable=0;points=[];autosize=1;" parent="1" vertex="1">
          <mxGeometry x="200" y="230" width="20" height="20" as="geometry" />
        </mxCell>
        <mxCell id="idTjBI_8EWhqLSjGhgTQ-78" value="1" style="text;html=1;align=center;verticalAlign=middle;resizable=0;points=[];autosize=1;" parent="1" vertex="1">
          <mxGeometry x="265" y="230" width="20" height="20" as="geometry" />
        </mxCell>
        <mxCell id="idTjBI_8EWhqLSjGhgTQ-79" value="1" style="text;html=1;align=center;verticalAlign=middle;resizable=0;points=[];autosize=1;" parent="1" vertex="1">
          <mxGeometry x="500" y="235" width="20" height="20" as="geometry" />
        </mxCell>
        <mxCell id="idTjBI_8EWhqLSjGhgTQ-80" value="N" style="text;html=1;align=center;verticalAlign=middle;resizable=0;points=[];autosize=1;" parent="1" vertex="1">
          <mxGeometry x="560" y="235" width="20" height="20" as="geometry" />
        </mxCell>
        <mxCell id="idTjBI_8EWhqLSjGhgTQ-81" value="N" style="text;html=1;align=center;verticalAlign=middle;resizable=0;points=[];autosize=1;" parent="1" vertex="1">
          <mxGeometry x="550" y="320" width="20" height="20" as="geometry" />
        </mxCell>
        <mxCell id="idTjBI_8EWhqLSjGhgTQ-82" value="M" style="text;html=1;align=center;verticalAlign=middle;resizable=0;points=[];autosize=1;" parent="1" vertex="1">
          <mxGeometry x="480" y="360" width="30" height="20" as="geometry" />
        </mxCell>
        <mxCell id="idTjBI_8EWhqLSjGhgTQ-84" value="1" style="text;html=1;align=center;verticalAlign=middle;resizable=0;points=[];autosize=1;" parent="1" vertex="1">
          <mxGeometry x="380" y="300" width="20" height="20" as="geometry" />
        </mxCell>
        <mxCell id="idTjBI_8EWhqLSjGhgTQ-85" value="N" style="text;html=1;align=center;verticalAlign=middle;resizable=0;points=[];autosize=1;" parent="1" vertex="1">
          <mxGeometry x="380" y="370" width="20" height="20" as="geometry" />
        </mxCell>
        <mxCell id="idTjBI_8EWhqLSjGhgTQ-86" value="Bransje" style="ellipse;whiteSpace=wrap;html=1;" parent="1" vertex="1">
          <mxGeometry x="414" y="750" width="120" height="40" as="geometry" />
        </mxCell>
        <mxCell id="idTjBI_8EWhqLSjGhgTQ-87" value="" style="endArrow=none;html=1;exitX=0.5;exitY=1;exitDx=0;exitDy=0;entryX=0.5;entryY=0;entryDx=0;entryDy=0;" parent="1" source="idTjBI_8EWhqLSjGhgTQ-19" target="idTjBI_8EWhqLSjGhgTQ-86" edge="1">
          <mxGeometry width="50" height="50" relative="1" as="geometry">
            <mxPoint x="410" y="440" as="sourcePoint" />
            <mxPoint x="460" y="390" as="targetPoint" />
          </mxGeometry>
        </mxCell>
        <mxCell id="idTjBI_8EWhqLSjGhgTQ-88" style="edgeStyle=orthogonalEdgeStyle;rounded=0;orthogonalLoop=1;jettySize=auto;html=1;exitX=0.5;exitY=1;exitDx=0;exitDy=0;" parent="1" source="idTjBI_8EWhqLSjGhgTQ-39" target="idTjBI_8EWhqLSjGhgTQ-39" edge="1">
          <mxGeometry relative="1" as="geometry" />
        </mxCell>
        <mxCell id="idTjBI_8EWhqLSjGhgTQ-90" value="" style="rounded=0;whiteSpace=wrap;html=1;" parent="1" vertex="1">
          <mxGeometry x="1050" y="720" width="420" height="360" as="geometry" />
        </mxCell>
        <mxCell id="idTjBI_8EWhqLSjGhgTQ-92" value="&lt;h1&gt;Spørsmål&lt;/h1&gt;&lt;div&gt;Skal vi ha med mellomnavn? NEI&lt;/div&gt;&lt;p&gt;Hvor skal adresse i annonsen være? Det skal være annen attributt enn filtrering til geografisk område? Skal det være på arbeidsgiver kanskje?&lt;/p&gt;&lt;p&gt;Hva med kontaktperson? Skal det stå på annonse slik at en bedrift kan ha flere kontaktpersoner til sine annonser eller skal det være kontaktperson i arbeidsgiver? Da må en arbeidsgiver kanskje ha flere forskjellige brukere?&amp;nbsp;&lt;/p&gt;&lt;p&gt;&lt;span&gt;Min venninne ville gjerne ha inn mulighet til å se hvilke annonser man har sett på eller søkt på tidligere. skal det inn på arbeidstaker?&amp;nbsp;&lt;/span&gt;&lt;br&gt;&lt;/p&gt;" style="text;html=1;strokeColor=none;fillColor=none;spacing=5;spacingTop=-20;whiteSpace=wrap;overflow=hidden;rounded=0;" parent="1" vertex="1">
          <mxGeometry x="1060" y="720" width="420" height="360" as="geometry" />
        </mxCell>
        <mxCell id="idTjBI_8EWhqLSjGhgTQ-98" value="Stilling" style="ellipse;whiteSpace=wrap;html=1;" parent="1" vertex="1">
          <mxGeometry x="190" y="750" width="120" height="40" as="geometry" />
        </mxCell>
        <mxCell id="idTjBI_8EWhqLSjGhgTQ-99" value="" style="endArrow=none;html=1;exitX=0.5;exitY=0;exitDx=0;exitDy=0;entryX=0.5;entryY=1;entryDx=0;entryDy=0;" parent="1" source="idTjBI_8EWhqLSjGhgTQ-98" target="idTjBI_8EWhqLSjGhgTQ-19" edge="1">
          <mxGeometry width="50" height="50" relative="1" as="geometry">
            <mxPoint x="520" y="480" as="sourcePoint" />
            <mxPoint x="570" y="430" as="targetPoint" />
          </mxGeometry>
        </mxCell>
        <mxCell id="idTjBI_8EWhqLSjGhgTQ-100" value="" style="endArrow=none;html=1;exitX=0.5;exitY=0;exitDx=0;exitDy=0;" parent="1" source="idTjBI_8EWhqLSjGhgTQ-156" edge="1">
          <mxGeometry width="50" height="50" relative="1" as="geometry">
            <mxPoint x="360" y="710" as="sourcePoint" />
            <mxPoint x="380" y="440" as="targetPoint" />
          </mxGeometry>
        </mxCell>
        <mxCell id="idTjBI_8EWhqLSjGhgTQ-104" value="administrator" style="rounded=0;whiteSpace=wrap;html=1;" parent="1" vertex="1">
          <mxGeometry x="319" y="80" width="120" height="40" as="geometry" />
        </mxCell>
        <mxCell id="idTjBI_8EWhqLSjGhgTQ-105" value="har" style="rhombus;whiteSpace=wrap;html=1;" parent="1" vertex="1">
          <mxGeometry x="344" y="150" width="64" height="60" as="geometry" />
        </mxCell>
        <mxCell id="idTjBI_8EWhqLSjGhgTQ-106" value="" style="endArrow=none;html=1;exitX=0.5;exitY=0;exitDx=0;exitDy=0;" parent="1" source="idTjBI_8EWhqLSjGhgTQ-105" edge="1">
          <mxGeometry width="50" height="50" relative="1" as="geometry">
            <mxPoint x="379" y="150" as="sourcePoint" />
            <mxPoint x="376" y="120" as="targetPoint" />
          </mxGeometry>
        </mxCell>
        <mxCell id="idTjBI_8EWhqLSjGhgTQ-107" value="" style="endArrow=none;html=1;entryX=0.5;entryY=1;entryDx=0;entryDy=0;" parent="1" target="idTjBI_8EWhqLSjGhgTQ-105" edge="1">
          <mxGeometry width="50" height="50" relative="1" as="geometry">
            <mxPoint x="376" y="240" as="sourcePoint" />
            <mxPoint x="430" y="200" as="targetPoint" />
          </mxGeometry>
        </mxCell>
        <mxCell id="idTjBI_8EWhqLSjGhgTQ-109" style="edgeStyle=orthogonalEdgeStyle;rounded=0;orthogonalLoop=1;jettySize=auto;html=1;exitX=0.5;exitY=1;exitDx=0;exitDy=0;" parent="1" source="idTjBI_8EWhqLSjGhgTQ-108" target="idTjBI_8EWhqLSjGhgTQ-108" edge="1">
          <mxGeometry relative="1" as="geometry" />
        </mxCell>
        <mxCell id="idTjBI_8EWhqLSjGhgTQ-110" value="" style="endArrow=none;html=1;exitX=0.792;exitY=0.11;exitDx=0;exitDy=0;entryX=0.5;entryY=1;entryDx=0;entryDy=0;exitPerimeter=0;" parent="1" source="idTjBI_8EWhqLSjGhgTQ-108" target="idTjBI_8EWhqLSjGhgTQ-2" edge="1">
          <mxGeometry width="50" height="50" relative="1" as="geometry">
            <mxPoint x="270" y="370" as="sourcePoint" />
            <mxPoint x="320" y="320" as="targetPoint" />
          </mxGeometry>
        </mxCell>
        <mxCell id="idTjBI_8EWhqLSjGhgTQ-111" value="Navn" style="ellipse;whiteSpace=wrap;html=1;" parent="1" vertex="1">
          <mxGeometry x="-225" y="300" width="90" height="40" as="geometry" />
        </mxCell>
        <mxCell id="idTjBI_8EWhqLSjGhgTQ-112" value="" style="endArrow=none;html=1;exitX=1;exitY=0.5;exitDx=0;exitDy=0;entryX=0;entryY=0.5;entryDx=0;entryDy=0;" parent="1" source="idTjBI_8EWhqLSjGhgTQ-111" target="idTjBI_8EWhqLSjGhgTQ-108" edge="1">
          <mxGeometry width="50" height="50" relative="1" as="geometry">
            <mxPoint x="270" y="370" as="sourcePoint" />
            <mxPoint x="320" y="320" as="targetPoint" />
          </mxGeometry>
        </mxCell>
        <mxCell id="idTjBI_8EWhqLSjGhgTQ-113" value="Fornavn" style="ellipse;whiteSpace=wrap;html=1;" parent="1" vertex="1">
          <mxGeometry x="-330" y="220" width="120" height="40" as="geometry" />
        </mxCell>
        <mxCell id="idTjBI_8EWhqLSjGhgTQ-116" value="Etternavn" style="ellipse;whiteSpace=wrap;html=1;" parent="1" vertex="1">
          <mxGeometry x="-400" y="320" width="120" height="40" as="geometry" />
        </mxCell>
        <mxCell id="idTjBI_8EWhqLSjGhgTQ-117" value="" style="endArrow=none;html=1;exitX=0.5;exitY=1;exitDx=0;exitDy=0;entryX=0;entryY=0;entryDx=0;entryDy=0;" parent="1" source="idTjBI_8EWhqLSjGhgTQ-113" target="idTjBI_8EWhqLSjGhgTQ-111" edge="1">
          <mxGeometry width="50" height="50" relative="1" as="geometry">
            <mxPoint x="130" y="370" as="sourcePoint" />
            <mxPoint x="180" y="320" as="targetPoint" />
          </mxGeometry>
        </mxCell>
        <mxCell id="idTjBI_8EWhqLSjGhgTQ-118" value="" style="endArrow=none;html=1;entryX=0;entryY=0.5;entryDx=0;entryDy=0;" parent="1" target="idTjBI_8EWhqLSjGhgTQ-111" edge="1">
          <mxGeometry width="50" height="50" relative="1" as="geometry">
            <mxPoint x="-280" y="340" as="sourcePoint" />
            <mxPoint x="-250" y="340" as="targetPoint" />
          </mxGeometry>
        </mxCell>
        <mxCell id="idTjBI_8EWhqLSjGhgTQ-119" value="&lt;u&gt;Ansattnummer&lt;/u&gt;" style="ellipse;whiteSpace=wrap;html=1;" parent="1" vertex="1">
          <mxGeometry x="140" y="40" width="120" height="40" as="geometry" />
        </mxCell>
        <mxCell id="idTjBI_8EWhqLSjGhgTQ-120" value="Navn" style="ellipse;whiteSpace=wrap;html=1;" parent="1" vertex="1">
          <mxGeometry x="440" y="30" width="120" height="40" as="geometry" />
        </mxCell>
        <mxCell id="idTjBI_8EWhqLSjGhgTQ-121" value="Etternavn" style="ellipse;whiteSpace=wrap;html=1;" parent="1" vertex="1">
          <mxGeometry x="600" y="20" width="120" height="40" as="geometry" />
        </mxCell>
        <mxCell id="idTjBI_8EWhqLSjGhgTQ-122" value="Fornavn" style="ellipse;whiteSpace=wrap;html=1;" parent="1" vertex="1">
          <mxGeometry x="490" y="-30" width="120" height="40" as="geometry" />
        </mxCell>
        <mxCell id="idTjBI_8EWhqLSjGhgTQ-123" value="E-postadresse" style="ellipse;whiteSpace=wrap;html=1;" parent="1" vertex="1">
          <mxGeometry x="302.5" y="-50" width="120" height="40" as="geometry" />
        </mxCell>
        <mxCell id="idTjBI_8EWhqLSjGhgTQ-124" value="Telefonnummer" style="ellipse;whiteSpace=wrap;html=1;" parent="1" vertex="1">
          <mxGeometry x="160" y="-30" width="120" height="40" as="geometry" />
        </mxCell>
        <mxCell id="idTjBI_8EWhqLSjGhgTQ-125" value="" style="endArrow=none;html=1;entryX=0.5;entryY=1;entryDx=0;entryDy=0;exitX=0.5;exitY=0;exitDx=0;exitDy=0;" parent="1" source="idTjBI_8EWhqLSjGhgTQ-104" target="idTjBI_8EWhqLSjGhgTQ-123" edge="1">
          <mxGeometry width="50" height="50" relative="1" as="geometry">
            <mxPoint x="370" y="50" as="sourcePoint" />
            <mxPoint x="370" as="targetPoint" />
          </mxGeometry>
        </mxCell>
        <mxCell id="idTjBI_8EWhqLSjGhgTQ-126" value="" style="endArrow=none;html=1;entryX=1;entryY=1;entryDx=0;entryDy=0;exitX=0.25;exitY=0;exitDx=0;exitDy=0;" parent="1" source="idTjBI_8EWhqLSjGhgTQ-104" target="idTjBI_8EWhqLSjGhgTQ-124" edge="1">
          <mxGeometry width="50" height="50" relative="1" as="geometry">
            <mxPoint x="379.99999999999955" y="60" as="sourcePoint" />
            <mxPoint x="379.99999999999955" y="10" as="targetPoint" />
          </mxGeometry>
        </mxCell>
        <mxCell id="idTjBI_8EWhqLSjGhgTQ-127" value="" style="endArrow=none;html=1;entryX=1;entryY=0.5;entryDx=0;entryDy=0;exitX=0;exitY=0;exitDx=0;exitDy=0;" parent="1" source="idTjBI_8EWhqLSjGhgTQ-104" target="idTjBI_8EWhqLSjGhgTQ-119" edge="1">
          <mxGeometry width="50" height="50" relative="1" as="geometry">
            <mxPoint x="389.99999999999955" y="70" as="sourcePoint" />
            <mxPoint x="389.99999999999955" y="20" as="targetPoint" />
          </mxGeometry>
        </mxCell>
        <mxCell id="idTjBI_8EWhqLSjGhgTQ-128" value="" style="endArrow=none;html=1;entryX=0;entryY=1;entryDx=0;entryDy=0;" parent="1" target="idTjBI_8EWhqLSjGhgTQ-120" edge="1">
          <mxGeometry width="50" height="50" relative="1" as="geometry">
            <mxPoint x="399.99999999999955" y="80" as="sourcePoint" />
            <mxPoint x="399.99999999999955" y="30" as="targetPoint" />
          </mxGeometry>
        </mxCell>
        <mxCell id="idTjBI_8EWhqLSjGhgTQ-133" value="" style="endArrow=none;html=1;entryX=0.5;entryY=1;entryDx=0;entryDy=0;exitX=1;exitY=0;exitDx=0;exitDy=0;" parent="1" source="idTjBI_8EWhqLSjGhgTQ-120" target="idTjBI_8EWhqLSjGhgTQ-122" edge="1">
          <mxGeometry width="50" height="50" relative="1" as="geometry">
            <mxPoint x="330" y="230" as="sourcePoint" />
            <mxPoint x="380" y="180" as="targetPoint" />
          </mxGeometry>
        </mxCell>
        <mxCell id="idTjBI_8EWhqLSjGhgTQ-134" value="" style="endArrow=none;html=1;entryX=0;entryY=0.5;entryDx=0;entryDy=0;exitX=1;exitY=0.5;exitDx=0;exitDy=0;" parent="1" source="idTjBI_8EWhqLSjGhgTQ-120" target="idTjBI_8EWhqLSjGhgTQ-121" edge="1">
          <mxGeometry width="50" height="50" relative="1" as="geometry">
            <mxPoint x="330" y="230" as="sourcePoint" />
            <mxPoint x="380" y="180" as="targetPoint" />
          </mxGeometry>
        </mxCell>
        <mxCell id="idTjBI_8EWhqLSjGhgTQ-135" value="arkiv/hjerte/abonnement" style="ellipse;whiteSpace=wrap;html=1;" parent="1" vertex="1">
          <mxGeometry x="750" y="330" width="140" height="50" as="geometry" />
        </mxCell>
        <mxCell id="idTjBI_8EWhqLSjGhgTQ-136" value="" style="endArrow=none;html=1;entryX=0.75;entryY=1;entryDx=0;entryDy=0;exitX=0.5;exitY=0;exitDx=0;exitDy=0;" parent="1" source="idTjBI_8EWhqLSjGhgTQ-135" target="idTjBI_8EWhqLSjGhgTQ-4" edge="1">
          <mxGeometry width="50" height="50" relative="1" as="geometry">
            <mxPoint x="470" y="360" as="sourcePoint" />
            <mxPoint x="520" y="310" as="targetPoint" />
          </mxGeometry>
        </mxCell>
        <mxCell id="idTjBI_8EWhqLSjGhgTQ-138" value="Postnummer" style="ellipse;whiteSpace=wrap;html=1;" parent="1" vertex="1">
          <mxGeometry x="155" y="940" width="120" height="40" as="geometry" />
        </mxCell>
        <mxCell id="idTjBI_8EWhqLSjGhgTQ-143" value="Gatenavn" style="ellipse;whiteSpace=wrap;html=1;" parent="1" vertex="1">
          <mxGeometry x="460" y="940" width="120" height="40" as="geometry" />
        </mxCell>
        <mxCell id="idTjBI_8EWhqLSjGhgTQ-147" value="Gatenummer" style="ellipse;whiteSpace=wrap;html=1;" parent="1" vertex="1">
          <mxGeometry x="293" y="970" width="120" height="40" as="geometry" />
        </mxCell>
        <mxCell id="idTjBI_8EWhqLSjGhgTQ-149" value="" style="endArrow=none;html=1;exitX=0.5;exitY=0;exitDx=0;exitDy=0;entryX=0.5;entryY=1;entryDx=0;entryDy=0;" parent="1" source="idTjBI_8EWhqLSjGhgTQ-138" target="idTjBI_8EWhqLSjGhgTQ-156" edge="1">
          <mxGeometry width="50" height="50" relative="1" as="geometry">
            <mxPoint x="320" y="710" as="sourcePoint" />
            <mxPoint x="352" y="770" as="targetPoint" />
            <Array as="points" />
          </mxGeometry>
        </mxCell>
        <mxCell id="idTjBI_8EWhqLSjGhgTQ-150" value="" style="endArrow=none;html=1;entryX=0.5;entryY=0;entryDx=0;entryDy=0;exitX=0.5;exitY=1;exitDx=0;exitDy=0;" parent="1" source="idTjBI_8EWhqLSjGhgTQ-156" target="idTjBI_8EWhqLSjGhgTQ-143" edge="1">
          <mxGeometry width="50" height="50" relative="1" as="geometry">
            <mxPoint x="330" y="710" as="sourcePoint" />
            <mxPoint x="380" y="660" as="targetPoint" />
          </mxGeometry>
        </mxCell>
        <mxCell id="idTjBI_8EWhqLSjGhgTQ-151" value="" style="endArrow=none;html=1;entryX=0.5;entryY=0;entryDx=0;entryDy=0;" parent="1" target="idTjBI_8EWhqLSjGhgTQ-147" edge="1">
          <mxGeometry width="50" height="50" relative="1" as="geometry">
            <mxPoint x="363" y="890" as="sourcePoint" />
            <mxPoint x="380" y="660" as="targetPoint" />
          </mxGeometry>
        </mxCell>
        <mxCell id="idTjBI_8EWhqLSjGhgTQ-139" value="Adresse" style="ellipse;whiteSpace=wrap;html=1;" parent="1" vertex="1">
          <mxGeometry x="302.5" y="840" width="120" height="40" as="geometry" />
        </mxCell>
        <mxCell id="idTjBI_8EWhqLSjGhgTQ-38" value="geografisk område" style="ellipse;whiteSpace=wrap;html=1;" parent="1" vertex="1">
          <mxGeometry x="100" y="580" width="120" height="40" as="geometry" />
        </mxCell>
        <mxCell id="idTjBI_8EWhqLSjGhgTQ-162" value="" style="endArrow=none;html=1;exitX=0.5;exitY=0;exitDx=0;exitDy=0;entryX=0;entryY=1;entryDx=0;entryDy=0;" parent="1" source="idTjBI_8EWhqLSjGhgTQ-49" target="idTjBI_8EWhqLSjGhgTQ-97" edge="1">
          <mxGeometry width="50" height="50" relative="1" as="geometry">
            <mxPoint x="50" y="730" as="sourcePoint" />
            <mxPoint x="209.2487032730287" y="560.9788246639" as="targetPoint" />
          </mxGeometry>
        </mxCell>
      </root>
    </mxGraphModel>
  </diagram>
  <diagram id="tSQxcwAQl-KPdnp039Ls" name="Page-2">
    <mxGraphModel dx="2331" dy="1851" grid="1" gridSize="10" guides="1" tooltips="1" connect="1" arrows="1" fold="1" page="1" pageScale="1" pageWidth="827" pageHeight="1169" math="0" shadow="0">
      <root>
        <mxCell id="6m-d3EnT1Q0BvzGFajZ4-0" />
        <mxCell id="6m-d3EnT1Q0BvzGFajZ4-1" parent="6m-d3EnT1Q0BvzGFajZ4-0" />
        <mxCell id="6m-d3EnT1Q0BvzGFajZ4-2" value="Person" style="rounded=0;whiteSpace=wrap;html=1;" parent="6m-d3EnT1Q0BvzGFajZ4-1" vertex="1">
          <mxGeometry x="330" y="120" width="120" height="60" as="geometry" />
        </mxCell>
        <mxCell id="6m-d3EnT1Q0BvzGFajZ4-4" value="Kontaktperson" style="rounded=0;whiteSpace=wrap;html=1;" parent="6m-d3EnT1Q0BvzGFajZ4-1" vertex="1">
          <mxGeometry y="500" width="120" height="60" as="geometry" />
        </mxCell>
        <mxCell id="6m-d3EnT1Q0BvzGFajZ4-5" value="Administrator" style="rounded=0;whiteSpace=wrap;html=1;" parent="6m-d3EnT1Q0BvzGFajZ4-1" vertex="1">
          <mxGeometry x="330" y="420" width="120" height="60" as="geometry" />
        </mxCell>
        <mxCell id="6m-d3EnT1Q0BvzGFajZ4-6" value="Arbeidstaker" style="rounded=0;whiteSpace=wrap;html=1;" parent="6m-d3EnT1Q0BvzGFajZ4-1" vertex="1">
          <mxGeometry x="660" y="500" width="120" height="60" as="geometry" />
        </mxCell>
        <mxCell id="6m-d3EnT1Q0BvzGFajZ4-8" value="Annonse" style="rounded=0;whiteSpace=wrap;html=1;" parent="6m-d3EnT1Q0BvzGFajZ4-1" vertex="1">
          <mxGeometry x="330" y="770" width="120" height="60" as="geometry" />
        </mxCell>
        <mxCell id="6m-d3EnT1Q0BvzGFajZ4-9" value="" style="endArrow=none;html=1;entryX=0.5;entryY=1;entryDx=0;entryDy=0;" parent="6m-d3EnT1Q0BvzGFajZ4-1" target="6m-d3EnT1Q0BvzGFajZ4-2" edge="1">
          <mxGeometry width="50" height="50" relative="1" as="geometry">
            <mxPoint x="390" y="220" as="sourcePoint" />
            <mxPoint x="440" y="330" as="targetPoint" />
          </mxGeometry>
        </mxCell>
        <mxCell id="6m-d3EnT1Q0BvzGFajZ4-10" value="d" style="ellipse;whiteSpace=wrap;html=1;aspect=fixed;" parent="6m-d3EnT1Q0BvzGFajZ4-1" vertex="1">
          <mxGeometry x="370" y="220" width="40" height="40" as="geometry" />
        </mxCell>
        <mxCell id="6m-d3EnT1Q0BvzGFajZ4-11" value="" style="endArrow=none;html=1;entryX=0.5;entryY=1;entryDx=0;entryDy=0;exitX=0.5;exitY=0;exitDx=0;exitDy=0;" parent="6m-d3EnT1Q0BvzGFajZ4-1" source="6m-d3EnT1Q0BvzGFajZ4-5" target="6m-d3EnT1Q0BvzGFajZ4-10" edge="1">
          <mxGeometry width="50" height="50" relative="1" as="geometry">
            <mxPoint x="390" y="380" as="sourcePoint" />
            <mxPoint x="440" y="330" as="targetPoint" />
          </mxGeometry>
        </mxCell>
        <mxCell id="6m-d3EnT1Q0BvzGFajZ4-12" value="" style="endArrow=none;html=1;entryX=0;entryY=1;entryDx=0;entryDy=0;exitX=0.5;exitY=0;exitDx=0;exitDy=0;" parent="6m-d3EnT1Q0BvzGFajZ4-1" source="6m-d3EnT1Q0BvzGFajZ4-4" target="6m-d3EnT1Q0BvzGFajZ4-10" edge="1">
          <mxGeometry width="50" height="50" relative="1" as="geometry">
            <mxPoint x="390" y="380" as="sourcePoint" />
            <mxPoint x="440" y="330" as="targetPoint" />
          </mxGeometry>
        </mxCell>
        <mxCell id="6m-d3EnT1Q0BvzGFajZ4-13" value="" style="endArrow=none;html=1;entryX=1;entryY=1;entryDx=0;entryDy=0;exitX=0.5;exitY=0;exitDx=0;exitDy=0;" parent="6m-d3EnT1Q0BvzGFajZ4-1" source="6m-d3EnT1Q0BvzGFajZ4-6" target="6m-d3EnT1Q0BvzGFajZ4-10" edge="1">
          <mxGeometry width="50" height="50" relative="1" as="geometry">
            <mxPoint x="390" y="380" as="sourcePoint" />
            <mxPoint x="440" y="330" as="targetPoint" />
          </mxGeometry>
        </mxCell>
        <mxCell id="6m-d3EnT1Q0BvzGFajZ4-14" value="" style="endArrow=none;html=1;exitX=0;exitY=0;exitDx=0;exitDy=0;entryX=0.5;entryY=1;entryDx=0;entryDy=0;" parent="6m-d3EnT1Q0BvzGFajZ4-1" source="6m-d3EnT1Q0BvzGFajZ4-24" target="6m-d3EnT1Q0BvzGFajZ4-4" edge="1">
          <mxGeometry width="50" height="50" relative="1" as="geometry">
            <mxPoint x="390" y="380" as="sourcePoint" />
            <mxPoint x="440" y="330" as="targetPoint" />
          </mxGeometry>
        </mxCell>
        <mxCell id="6m-d3EnT1Q0BvzGFajZ4-17" value="" style="endArrow=none;html=1;entryX=0.5;entryY=1;entryDx=0;entryDy=0;exitX=1;exitY=0;exitDx=0;exitDy=0;" parent="6m-d3EnT1Q0BvzGFajZ4-1" source="6m-d3EnT1Q0BvzGFajZ4-22" target="6m-d3EnT1Q0BvzGFajZ4-6" edge="1">
          <mxGeometry width="50" height="50" relative="1" as="geometry">
            <mxPoint x="380" y="490" as="sourcePoint" />
            <mxPoint x="430" y="440" as="targetPoint" />
          </mxGeometry>
        </mxCell>
        <mxCell id="6m-d3EnT1Q0BvzGFajZ4-18" value="" style="endArrow=none;html=1;entryX=0.5;entryY=1;entryDx=0;entryDy=0;exitX=0.5;exitY=0;exitDx=0;exitDy=0;" parent="6m-d3EnT1Q0BvzGFajZ4-1" source="6m-d3EnT1Q0BvzGFajZ4-21" target="6m-d3EnT1Q0BvzGFajZ4-5" edge="1">
          <mxGeometry width="50" height="50" relative="1" as="geometry">
            <mxPoint x="390" y="465" as="sourcePoint" />
            <mxPoint x="430" y="440" as="targetPoint" />
          </mxGeometry>
        </mxCell>
        <mxCell id="6m-d3EnT1Q0BvzGFajZ4-19" value="" style="endArrow=none;html=1;exitX=0.5;exitY=0;exitDx=0;exitDy=0;entryX=0.5;entryY=1;entryDx=0;entryDy=0;" parent="6m-d3EnT1Q0BvzGFajZ4-1" source="6m-d3EnT1Q0BvzGFajZ4-8" target="6m-d3EnT1Q0BvzGFajZ4-21" edge="1">
          <mxGeometry width="50" height="50" relative="1" as="geometry">
            <mxPoint x="380" y="490" as="sourcePoint" />
            <mxPoint x="390" y="525" as="targetPoint" />
          </mxGeometry>
        </mxCell>
        <mxCell id="6m-d3EnT1Q0BvzGFajZ4-20" value="Nyutdanna.no" style="rounded=0;whiteSpace=wrap;html=1;" parent="6m-d3EnT1Q0BvzGFajZ4-1" vertex="1">
          <mxGeometry x="330" y="-70" width="120" height="60" as="geometry" />
        </mxCell>
        <mxCell id="6m-d3EnT1Q0BvzGFajZ4-21" value="godkjenner/&lt;br&gt;avviser" style="rhombus;whiteSpace=wrap;html=1;" parent="6m-d3EnT1Q0BvzGFajZ4-1" vertex="1">
          <mxGeometry x="350" y="550" width="80" height="80" as="geometry" />
        </mxCell>
        <mxCell id="6m-d3EnT1Q0BvzGFajZ4-22" value="søker på" style="rhombus;whiteSpace=wrap;html=1;" parent="6m-d3EnT1Q0BvzGFajZ4-1" vertex="1">
          <mxGeometry x="570" y="620" width="80" height="80" as="geometry" />
        </mxCell>
        <mxCell id="6m-d3EnT1Q0BvzGFajZ4-23" value="" style="endArrow=none;html=1;entryX=0;entryY=1;entryDx=0;entryDy=0;exitX=1;exitY=0.5;exitDx=0;exitDy=0;" parent="6m-d3EnT1Q0BvzGFajZ4-1" source="6m-d3EnT1Q0BvzGFajZ4-8" target="6m-d3EnT1Q0BvzGFajZ4-22" edge="1">
          <mxGeometry width="50" height="50" relative="1" as="geometry">
            <mxPoint x="450" y="670" as="sourcePoint" />
            <mxPoint x="760" y="560" as="targetPoint" />
          </mxGeometry>
        </mxCell>
        <mxCell id="6m-d3EnT1Q0BvzGFajZ4-24" value="legger ut" style="rhombus;whiteSpace=wrap;html=1;" parent="6m-d3EnT1Q0BvzGFajZ4-1" vertex="1">
          <mxGeometry x="140" y="630" width="80" height="80" as="geometry" />
        </mxCell>
        <mxCell id="6m-d3EnT1Q0BvzGFajZ4-25" value="" style="endArrow=none;html=1;exitX=0;exitY=0.5;exitDx=0;exitDy=0;entryX=1;entryY=1;entryDx=0;entryDy=0;" parent="6m-d3EnT1Q0BvzGFajZ4-1" source="6m-d3EnT1Q0BvzGFajZ4-8" target="6m-d3EnT1Q0BvzGFajZ4-24" edge="1">
          <mxGeometry width="50" height="50" relative="1" as="geometry">
            <mxPoint x="330" y="670" as="sourcePoint" />
            <mxPoint x="60" y="560" as="targetPoint" />
          </mxGeometry>
        </mxCell>
        <mxCell id="t7JEHEmDK_x5SuG9JiXk-0" value="Brukes av" style="rhombus;whiteSpace=wrap;html=1;" parent="6m-d3EnT1Q0BvzGFajZ4-1" vertex="1">
          <mxGeometry x="350" y="20" width="80" height="80" as="geometry" />
        </mxCell>
        <mxCell id="t7JEHEmDK_x5SuG9JiXk-1" value="" style="endArrow=none;html=1;entryX=0.5;entryY=1;entryDx=0;entryDy=0;exitX=0.5;exitY=0;exitDx=0;exitDy=0;" parent="6m-d3EnT1Q0BvzGFajZ4-1" source="t7JEHEmDK_x5SuG9JiXk-0" target="6m-d3EnT1Q0BvzGFajZ4-20" edge="1">
          <mxGeometry width="50" height="50" relative="1" as="geometry">
            <mxPoint x="460" y="310" as="sourcePoint" />
            <mxPoint x="510" y="260" as="targetPoint" />
          </mxGeometry>
        </mxCell>
        <mxCell id="t7JEHEmDK_x5SuG9JiXk-2" value="" style="endArrow=none;html=1;entryX=0.5;entryY=1;entryDx=0;entryDy=0;exitX=0.5;exitY=0;exitDx=0;exitDy=0;" parent="6m-d3EnT1Q0BvzGFajZ4-1" source="6m-d3EnT1Q0BvzGFajZ4-2" target="t7JEHEmDK_x5SuG9JiXk-0" edge="1">
          <mxGeometry width="50" height="50" relative="1" as="geometry">
            <mxPoint x="460" y="310" as="sourcePoint" />
            <mxPoint x="510" y="260" as="targetPoint" />
          </mxGeometry>
        </mxCell>
        <mxCell id="VBsaxjliUj2s-mX9pLY5-0" value="Telefonnummer" style="ellipse;whiteSpace=wrap;html=1;" parent="6m-d3EnT1Q0BvzGFajZ4-1" vertex="1">
          <mxGeometry x="590" y="80" width="120" height="40" as="geometry" />
        </mxCell>
        <mxCell id="VBsaxjliUj2s-mX9pLY5-1" value="E-postadresse" style="ellipse;whiteSpace=wrap;html=1;" parent="6m-d3EnT1Q0BvzGFajZ4-1" vertex="1">
          <mxGeometry x="590" y="160" width="120" height="40" as="geometry" />
        </mxCell>
        <mxCell id="VBsaxjliUj2s-mX9pLY5-2" value="Fornavn" style="ellipse;whiteSpace=wrap;html=1;" parent="6m-d3EnT1Q0BvzGFajZ4-1" vertex="1">
          <mxGeometry x="30" y="60" width="120" height="40" as="geometry" />
        </mxCell>
        <mxCell id="VBsaxjliUj2s-mX9pLY5-3" value="Navn" style="ellipse;whiteSpace=wrap;html=1;" parent="6m-d3EnT1Q0BvzGFajZ4-1" vertex="1">
          <mxGeometry x="150" y="130" width="120" height="40" as="geometry" />
        </mxCell>
        <mxCell id="VBsaxjliUj2s-mX9pLY5-4" value="Etternavn" style="ellipse;whiteSpace=wrap;html=1;" parent="6m-d3EnT1Q0BvzGFajZ4-1" vertex="1">
          <mxGeometry x="30" y="200" width="120" height="40" as="geometry" />
        </mxCell>
        <mxCell id="VBsaxjliUj2s-mX9pLY5-5" value="" style="endArrow=none;html=1;exitX=0.5;exitY=1;exitDx=0;exitDy=0;entryX=1;entryY=0.5;entryDx=0;entryDy=0;" parent="6m-d3EnT1Q0BvzGFajZ4-1" source="VBsaxjliUj2s-mX9pLY5-3" target="VBsaxjliUj2s-mX9pLY5-4" edge="1">
          <mxGeometry width="50" height="50" relative="1" as="geometry">
            <mxPoint x="450" y="180" as="sourcePoint" />
            <mxPoint x="500" y="130" as="targetPoint" />
          </mxGeometry>
        </mxCell>
        <mxCell id="VBsaxjliUj2s-mX9pLY5-6" value="" style="endArrow=none;html=1;exitX=1;exitY=0.5;exitDx=0;exitDy=0;entryX=0.5;entryY=0;entryDx=0;entryDy=0;" parent="6m-d3EnT1Q0BvzGFajZ4-1" source="VBsaxjliUj2s-mX9pLY5-2" target="VBsaxjliUj2s-mX9pLY5-3" edge="1">
          <mxGeometry width="50" height="50" relative="1" as="geometry">
            <mxPoint x="460" y="190" as="sourcePoint" />
            <mxPoint x="510" y="140" as="targetPoint" />
          </mxGeometry>
        </mxCell>
        <mxCell id="VBsaxjliUj2s-mX9pLY5-7" value="" style="endArrow=none;html=1;entryX=0;entryY=0.5;entryDx=0;entryDy=0;" parent="6m-d3EnT1Q0BvzGFajZ4-1" target="VBsaxjliUj2s-mX9pLY5-0" edge="1">
          <mxGeometry width="50" height="50" relative="1" as="geometry">
            <mxPoint x="450" y="150" as="sourcePoint" />
            <mxPoint x="520" y="150" as="targetPoint" />
          </mxGeometry>
        </mxCell>
        <mxCell id="VBsaxjliUj2s-mX9pLY5-8" value="" style="endArrow=none;html=1;exitX=0;exitY=0.5;exitDx=0;exitDy=0;entryX=1;entryY=0.5;entryDx=0;entryDy=0;" parent="6m-d3EnT1Q0BvzGFajZ4-1" source="6m-d3EnT1Q0BvzGFajZ4-2" target="VBsaxjliUj2s-mX9pLY5-3" edge="1">
          <mxGeometry width="50" height="50" relative="1" as="geometry">
            <mxPoint x="480" y="210" as="sourcePoint" />
            <mxPoint x="530" y="160" as="targetPoint" />
          </mxGeometry>
        </mxCell>
        <mxCell id="VBsaxjliUj2s-mX9pLY5-9" value="" style="endArrow=none;html=1;entryX=0;entryY=0.5;entryDx=0;entryDy=0;exitX=1;exitY=0.5;exitDx=0;exitDy=0;" parent="6m-d3EnT1Q0BvzGFajZ4-1" source="6m-d3EnT1Q0BvzGFajZ4-2" target="VBsaxjliUj2s-mX9pLY5-1" edge="1">
          <mxGeometry width="50" height="50" relative="1" as="geometry">
            <mxPoint x="490" y="220" as="sourcePoint" />
            <mxPoint x="540" y="170" as="targetPoint" />
          </mxGeometry>
        </mxCell>
        <mxCell id="hCujVnd8SzN6ktHoDfe5-0" value="&lt;u&gt;Ansattnummer&lt;/u&gt;" style="ellipse;whiteSpace=wrap;html=1;" parent="6m-d3EnT1Q0BvzGFajZ4-1" vertex="1">
          <mxGeometry x="420" y="360" width="120" height="40" as="geometry" />
        </mxCell>
        <mxCell id="hCujVnd8SzN6ktHoDfe5-1" value="&lt;u&gt;Brukernummer&lt;/u&gt;" style="ellipse;whiteSpace=wrap;html=1;" parent="6m-d3EnT1Q0BvzGFajZ4-1" vertex="1">
          <mxGeometry x="-110" y="430" width="120" height="40" as="geometry" />
        </mxCell>
        <mxCell id="hCujVnd8SzN6ktHoDfe5-2" value="&lt;u&gt;Søkernummer&lt;/u&gt;" style="ellipse;whiteSpace=wrap;html=1;" parent="6m-d3EnT1Q0BvzGFajZ4-1" vertex="1">
          <mxGeometry x="780" y="430" width="120" height="40" as="geometry" />
        </mxCell>
        <mxCell id="CWTzBbDwUq7ytByl7GhX-2" value="" style="endArrow=none;html=1;exitX=1;exitY=1;exitDx=0;exitDy=0;entryX=0.25;entryY=0;entryDx=0;entryDy=0;" parent="6m-d3EnT1Q0BvzGFajZ4-1" source="hCujVnd8SzN6ktHoDfe5-1" target="6m-d3EnT1Q0BvzGFajZ4-4" edge="1">
          <mxGeometry width="50" height="50" relative="1" as="geometry">
            <mxPoint x="390" y="470" as="sourcePoint" />
            <mxPoint x="440" y="420" as="targetPoint" />
          </mxGeometry>
        </mxCell>
        <mxCell id="CWTzBbDwUq7ytByl7GhX-3" value="" style="endArrow=none;html=1;entryX=0;entryY=1;entryDx=0;entryDy=0;exitX=0.75;exitY=0;exitDx=0;exitDy=0;" parent="6m-d3EnT1Q0BvzGFajZ4-1" source="6m-d3EnT1Q0BvzGFajZ4-6" target="hCujVnd8SzN6ktHoDfe5-2" edge="1">
          <mxGeometry width="50" height="50" relative="1" as="geometry">
            <mxPoint x="390" y="470" as="sourcePoint" />
            <mxPoint x="440" y="420" as="targetPoint" />
          </mxGeometry>
        </mxCell>
        <mxCell id="CWTzBbDwUq7ytByl7GhX-4" value="" style="endArrow=none;html=1;entryX=0;entryY=1;entryDx=0;entryDy=0;exitX=0.75;exitY=0;exitDx=0;exitDy=0;" parent="6m-d3EnT1Q0BvzGFajZ4-1" source="6m-d3EnT1Q0BvzGFajZ4-5" target="hCujVnd8SzN6ktHoDfe5-0" edge="1">
          <mxGeometry width="50" height="50" relative="1" as="geometry">
            <mxPoint x="390" y="470" as="sourcePoint" />
            <mxPoint x="440" y="420" as="targetPoint" />
          </mxGeometry>
        </mxCell>
        <mxCell id="LQl42kva5nk6s2m4MX5Y-0" value="" style="ellipse;whiteSpace=wrap;html=1;" parent="6m-d3EnT1Q0BvzGFajZ4-1" vertex="1">
          <mxGeometry x="-450" y="630" width="136" height="60" as="geometry" />
        </mxCell>
        <mxCell id="LQl42kva5nk6s2m4MX5Y-1" value="" style="ellipse;whiteSpace=wrap;html=1;" parent="6m-d3EnT1Q0BvzGFajZ4-1" vertex="1">
          <mxGeometry x="170" y="950" width="135" height="60" as="geometry" />
        </mxCell>
        <mxCell id="LQl42kva5nk6s2m4MX5Y-2" value="" style="ellipse;whiteSpace=wrap;html=1;" parent="6m-d3EnT1Q0BvzGFajZ4-1" vertex="1">
          <mxGeometry x="575" y="930" width="135" height="60" as="geometry" />
        </mxCell>
        <mxCell id="LQl42kva5nk6s2m4MX5Y-3" value="Annonsetekst" style="ellipse;whiteSpace=wrap;html=1;" parent="6m-d3EnT1Q0BvzGFajZ4-1" vertex="1">
          <mxGeometry x="760" y="810" width="120" height="40" as="geometry" />
        </mxCell>
        <mxCell id="LQl42kva5nk6s2m4MX5Y-4" value="Utdanningskrav" style="ellipse;whiteSpace=wrap;html=1;" parent="6m-d3EnT1Q0BvzGFajZ4-1" vertex="1">
          <mxGeometry x="582.5" y="940" width="120" height="40" as="geometry" />
        </mxCell>
        <mxCell id="LQl42kva5nk6s2m4MX5Y-5" value="&lt;u&gt;Annonsenummer&lt;/u&gt;" style="ellipse;whiteSpace=wrap;html=1;" parent="6m-d3EnT1Q0BvzGFajZ4-1" vertex="1">
          <mxGeometry x="-70" y="810" width="120" height="40" as="geometry" />
        </mxCell>
        <mxCell id="LQl42kva5nk6s2m4MX5Y-6" value="nivå" style="ellipse;whiteSpace=wrap;html=1;" parent="6m-d3EnT1Q0BvzGFajZ4-1" vertex="1">
          <mxGeometry x="800" y="940" width="120" height="40" as="geometry" />
        </mxCell>
        <mxCell id="LQl42kva5nk6s2m4MX5Y-7" value="fagfelt" style="ellipse;whiteSpace=wrap;html=1;direction=east;" parent="6m-d3EnT1Q0BvzGFajZ4-1" vertex="1">
          <mxGeometry x="730" y="1020" width="120" height="40" as="geometry" />
        </mxCell>
        <mxCell id="LQl42kva5nk6s2m4MX5Y-8" style="edgeStyle=orthogonalEdgeStyle;rounded=0;orthogonalLoop=1;jettySize=auto;html=1;exitX=0.5;exitY=1;exitDx=0;exitDy=0;" parent="6m-d3EnT1Q0BvzGFajZ4-1" source="LQl42kva5nk6s2m4MX5Y-35" target="LQl42kva5nk6s2m4MX5Y-35" edge="1">
          <mxGeometry relative="1" as="geometry" />
        </mxCell>
        <mxCell id="LQl42kva5nk6s2m4MX5Y-9" value="" style="endArrow=none;html=1;exitX=1;exitY=0.5;exitDx=0;exitDy=0;entryX=0;entryY=1;entryDx=0;entryDy=0;" parent="6m-d3EnT1Q0BvzGFajZ4-1" source="LQl42kva5nk6s2m4MX5Y-5" target="6m-d3EnT1Q0BvzGFajZ4-8" edge="1">
          <mxGeometry width="50" height="50" relative="1" as="geometry">
            <mxPoint x="450" y="460" as="sourcePoint" />
            <mxPoint x="330" y="450" as="targetPoint" />
          </mxGeometry>
        </mxCell>
        <mxCell id="LQl42kva5nk6s2m4MX5Y-10" value="" style="endArrow=none;html=1;entryX=0.25;entryY=1;entryDx=0;entryDy=0;exitX=1;exitY=0;exitDx=0;exitDy=0;" parent="6m-d3EnT1Q0BvzGFajZ4-1" source="LQl42kva5nk6s2m4MX5Y-1" target="6m-d3EnT1Q0BvzGFajZ4-8" edge="1">
          <mxGeometry width="50" height="50" relative="1" as="geometry">
            <mxPoint x="300" y="930" as="sourcePoint" />
            <mxPoint x="360" y="450" as="targetPoint" />
          </mxGeometry>
        </mxCell>
        <mxCell id="LQl42kva5nk6s2m4MX5Y-11" value="" style="endArrow=none;html=1;entryX=0.75;entryY=1;entryDx=0;entryDy=0;exitX=0.5;exitY=0;exitDx=0;exitDy=0;" parent="6m-d3EnT1Q0BvzGFajZ4-1" source="LQl42kva5nk6s2m4MX5Y-2" target="6m-d3EnT1Q0BvzGFajZ4-8" edge="1">
          <mxGeometry width="50" height="50" relative="1" as="geometry">
            <mxPoint x="628" y="900" as="sourcePoint" />
            <mxPoint x="420" y="450" as="targetPoint" />
          </mxGeometry>
        </mxCell>
        <mxCell id="LQl42kva5nk6s2m4MX5Y-12" value="" style="endArrow=none;html=1;exitX=0;exitY=0.5;exitDx=0;exitDy=0;entryX=1;entryY=1;entryDx=0;entryDy=0;" parent="6m-d3EnT1Q0BvzGFajZ4-1" source="LQl42kva5nk6s2m4MX5Y-3" target="6m-d3EnT1Q0BvzGFajZ4-8" edge="1">
          <mxGeometry width="50" height="50" relative="1" as="geometry">
            <mxPoint x="450" y="460" as="sourcePoint" />
            <mxPoint x="450" y="450" as="targetPoint" />
          </mxGeometry>
        </mxCell>
        <mxCell id="LQl42kva5nk6s2m4MX5Y-13" value="" style="endArrow=none;html=1;exitX=0.5;exitY=0;exitDx=0;exitDy=0;entryX=1;entryY=1;entryDx=0;entryDy=0;" parent="6m-d3EnT1Q0BvzGFajZ4-1" source="LQl42kva5nk6s2m4MX5Y-7" target="LQl42kva5nk6s2m4MX5Y-2" edge="1">
          <mxGeometry width="50" height="50" relative="1" as="geometry">
            <mxPoint x="450" y="460" as="sourcePoint" />
            <mxPoint x="500" y="410" as="targetPoint" />
          </mxGeometry>
        </mxCell>
        <mxCell id="LQl42kva5nk6s2m4MX5Y-14" value="" style="endArrow=none;html=1;exitX=0;exitY=0.5;exitDx=0;exitDy=0;entryX=1;entryY=0.5;entryDx=0;entryDy=0;" parent="6m-d3EnT1Q0BvzGFajZ4-1" source="LQl42kva5nk6s2m4MX5Y-6" target="LQl42kva5nk6s2m4MX5Y-2" edge="1">
          <mxGeometry width="50" height="50" relative="1" as="geometry">
            <mxPoint x="450" y="460" as="sourcePoint" />
            <mxPoint x="500" y="410" as="targetPoint" />
          </mxGeometry>
        </mxCell>
        <mxCell id="LQl42kva5nk6s2m4MX5Y-15" value="fylke" style="ellipse;whiteSpace=wrap;html=1;" parent="6m-d3EnT1Q0BvzGFajZ4-1" vertex="1">
          <mxGeometry x="-20" y="1040" width="120" height="40" as="geometry" />
        </mxCell>
        <mxCell id="LQl42kva5nk6s2m4MX5Y-16" value="kommune" style="ellipse;whiteSpace=wrap;html=1;" parent="6m-d3EnT1Q0BvzGFajZ4-1" vertex="1">
          <mxGeometry x="156.2" y="1090" width="120" height="40" as="geometry" />
        </mxCell>
        <mxCell id="LQl42kva5nk6s2m4MX5Y-17" value="" style="endArrow=none;html=1;exitX=1;exitY=0;exitDx=0;exitDy=0;entryX=0;entryY=1;entryDx=0;entryDy=0;" parent="6m-d3EnT1Q0BvzGFajZ4-1" source="LQl42kva5nk6s2m4MX5Y-15" target="LQl42kva5nk6s2m4MX5Y-1" edge="1">
          <mxGeometry width="50" height="50" relative="1" as="geometry">
            <mxPoint x="380" y="490" as="sourcePoint" />
            <mxPoint x="430" y="440" as="targetPoint" />
          </mxGeometry>
        </mxCell>
        <mxCell id="LQl42kva5nk6s2m4MX5Y-18" value="Om stilling" style="ellipse;whiteSpace=wrap;html=1;" parent="6m-d3EnT1Q0BvzGFajZ4-1" vertex="1">
          <mxGeometry x="990" y="740" width="120" height="40" as="geometry" />
        </mxCell>
        <mxCell id="LQl42kva5nk6s2m4MX5Y-19" value="Om arbeidgiver" style="ellipse;whiteSpace=wrap;html=1;" parent="6m-d3EnT1Q0BvzGFajZ4-1" vertex="1">
          <mxGeometry x="970" y="850" width="120" height="43" as="geometry" />
        </mxCell>
        <mxCell id="LQl42kva5nk6s2m4MX5Y-20" value="" style="endArrow=none;html=1;entryX=0;entryY=0.5;entryDx=0;entryDy=0;exitX=1;exitY=0.5;exitDx=0;exitDy=0;" parent="6m-d3EnT1Q0BvzGFajZ4-1" source="LQl42kva5nk6s2m4MX5Y-3" target="LQl42kva5nk6s2m4MX5Y-18" edge="1">
          <mxGeometry width="50" height="50" relative="1" as="geometry">
            <mxPoint x="320" y="390" as="sourcePoint" />
            <mxPoint x="370" y="340" as="targetPoint" />
          </mxGeometry>
        </mxCell>
        <mxCell id="LQl42kva5nk6s2m4MX5Y-21" value="" style="endArrow=none;html=1;entryX=0;entryY=0.5;entryDx=0;entryDy=0;exitX=1;exitY=0.5;exitDx=0;exitDy=0;" parent="6m-d3EnT1Q0BvzGFajZ4-1" source="LQl42kva5nk6s2m4MX5Y-3" target="LQl42kva5nk6s2m4MX5Y-19" edge="1">
          <mxGeometry width="50" height="50" relative="1" as="geometry">
            <mxPoint x="320" y="390" as="sourcePoint" />
            <mxPoint x="370" y="340" as="targetPoint" />
          </mxGeometry>
        </mxCell>
        <mxCell id="LQl42kva5nk6s2m4MX5Y-22" value="Bransje" style="ellipse;whiteSpace=wrap;html=1;" parent="6m-d3EnT1Q0BvzGFajZ4-1" vertex="1">
          <mxGeometry x="414" y="1150" width="120" height="40" as="geometry" />
        </mxCell>
        <mxCell id="LQl42kva5nk6s2m4MX5Y-23" value="" style="endArrow=none;html=1;exitX=0.5;exitY=1;exitDx=0;exitDy=0;entryX=0.5;entryY=0;entryDx=0;entryDy=0;" parent="6m-d3EnT1Q0BvzGFajZ4-1" source="6m-d3EnT1Q0BvzGFajZ4-8" target="LQl42kva5nk6s2m4MX5Y-22" edge="1">
          <mxGeometry width="50" height="50" relative="1" as="geometry">
            <mxPoint x="390" y="450" as="sourcePoint" />
            <mxPoint x="470" y="400" as="targetPoint" />
          </mxGeometry>
        </mxCell>
        <mxCell id="LQl42kva5nk6s2m4MX5Y-24" style="edgeStyle=orthogonalEdgeStyle;rounded=0;orthogonalLoop=1;jettySize=auto;html=1;exitX=0.5;exitY=1;exitDx=0;exitDy=0;" parent="6m-d3EnT1Q0BvzGFajZ4-1" source="LQl42kva5nk6s2m4MX5Y-6" target="LQl42kva5nk6s2m4MX5Y-6" edge="1">
          <mxGeometry relative="1" as="geometry" />
        </mxCell>
        <mxCell id="LQl42kva5nk6s2m4MX5Y-25" value="Stilling" style="ellipse;whiteSpace=wrap;html=1;" parent="6m-d3EnT1Q0BvzGFajZ4-1" vertex="1">
          <mxGeometry x="582.5" y="1110" width="120" height="40" as="geometry" />
        </mxCell>
        <mxCell id="LQl42kva5nk6s2m4MX5Y-26" value="" style="endArrow=none;html=1;exitX=0.5;exitY=0;exitDx=0;exitDy=0;entryX=0.5;entryY=1;entryDx=0;entryDy=0;" parent="6m-d3EnT1Q0BvzGFajZ4-1" source="LQl42kva5nk6s2m4MX5Y-25" target="6m-d3EnT1Q0BvzGFajZ4-8" edge="1">
          <mxGeometry width="50" height="50" relative="1" as="geometry">
            <mxPoint x="530" y="490" as="sourcePoint" />
            <mxPoint x="390" y="450" as="targetPoint" />
          </mxGeometry>
        </mxCell>
        <mxCell id="LQl42kva5nk6s2m4MX5Y-27" value="" style="endArrow=none;html=1;exitX=0.5;exitY=0;exitDx=0;exitDy=0;entryX=0.5;entryY=1;entryDx=0;entryDy=0;" parent="6m-d3EnT1Q0BvzGFajZ4-1" source="LQl42kva5nk6s2m4MX5Y-0" target="iDC6D_dFyTPEeD8r1e6W-4" edge="1">
          <mxGeometry width="50" height="50" relative="1" as="geometry">
            <mxPoint x="370" y="720" as="sourcePoint" />
            <mxPoint x="-340" y="720" as="targetPoint" />
          </mxGeometry>
        </mxCell>
        <mxCell id="LQl42kva5nk6s2m4MX5Y-28" value="Postnummer" style="ellipse;whiteSpace=wrap;html=1;" parent="6m-d3EnT1Q0BvzGFajZ4-1" vertex="1">
          <mxGeometry x="-600" y="813" width="120" height="40" as="geometry" />
        </mxCell>
        <mxCell id="LQl42kva5nk6s2m4MX5Y-29" value="Gateadresse" style="ellipse;whiteSpace=wrap;html=1;" parent="6m-d3EnT1Q0BvzGFajZ4-1" vertex="1">
          <mxGeometry x="-340" y="813" width="120" height="40" as="geometry" />
        </mxCell>
        <mxCell id="LQl42kva5nk6s2m4MX5Y-31" value="" style="endArrow=none;html=1;exitX=0.5;exitY=0;exitDx=0;exitDy=0;entryX=0.5;entryY=1;entryDx=0;entryDy=0;" parent="6m-d3EnT1Q0BvzGFajZ4-1" source="LQl42kva5nk6s2m4MX5Y-28" target="LQl42kva5nk6s2m4MX5Y-0" edge="1">
          <mxGeometry width="50" height="50" relative="1" as="geometry">
            <mxPoint x="330" y="720" as="sourcePoint" />
            <mxPoint x="362" y="780" as="targetPoint" />
            <Array as="points" />
          </mxGeometry>
        </mxCell>
        <mxCell id="LQl42kva5nk6s2m4MX5Y-32" value="" style="endArrow=none;html=1;entryX=0.5;entryY=0;entryDx=0;entryDy=0;exitX=0.5;exitY=1;exitDx=0;exitDy=0;" parent="6m-d3EnT1Q0BvzGFajZ4-1" source="LQl42kva5nk6s2m4MX5Y-0" target="LQl42kva5nk6s2m4MX5Y-29" edge="1">
          <mxGeometry width="50" height="50" relative="1" as="geometry">
            <mxPoint x="340" y="720" as="sourcePoint" />
            <mxPoint x="390" y="670" as="targetPoint" />
          </mxGeometry>
        </mxCell>
        <mxCell id="LQl42kva5nk6s2m4MX5Y-34" value="Adresse" style="ellipse;whiteSpace=wrap;html=1;" parent="6m-d3EnT1Q0BvzGFajZ4-1" vertex="1">
          <mxGeometry x="-442" y="640" width="120" height="40" as="geometry" />
        </mxCell>
        <mxCell id="LQl42kva5nk6s2m4MX5Y-35" value="geografisk område" style="ellipse;whiteSpace=wrap;html=1;" parent="6m-d3EnT1Q0BvzGFajZ4-1" vertex="1">
          <mxGeometry x="177.5" y="960" width="120" height="40" as="geometry" />
        </mxCell>
        <mxCell id="LQl42kva5nk6s2m4MX5Y-36" value="" style="endArrow=none;html=1;exitX=0.5;exitY=0;exitDx=0;exitDy=0;entryX=0.5;entryY=1;entryDx=0;entryDy=0;" parent="6m-d3EnT1Q0BvzGFajZ4-1" source="LQl42kva5nk6s2m4MX5Y-16" target="LQl42kva5nk6s2m4MX5Y-1" edge="1">
          <mxGeometry width="50" height="50" relative="1" as="geometry">
            <mxPoint x="60" y="740" as="sourcePoint" />
            <mxPoint x="219.2487032730287" y="570.9788246639" as="targetPoint" />
          </mxGeometry>
        </mxCell>
        <mxCell id="vXNN-kxoZwtLQ404BlhF-1" value="1" style="text;html=1;align=center;verticalAlign=middle;resizable=0;points=[];autosize=1;" parent="6m-d3EnT1Q0BvzGFajZ4-1" vertex="1">
          <mxGeometry x="408" y="13" width="20" height="20" as="geometry" />
        </mxCell>
        <mxCell id="vXNN-kxoZwtLQ404BlhF-2" value="N" style="text;html=1;align=center;verticalAlign=middle;resizable=0;points=[];autosize=1;" parent="6m-d3EnT1Q0BvzGFajZ4-1" vertex="1">
          <mxGeometry x="408" y="90" width="20" height="20" as="geometry" />
        </mxCell>
        <mxCell id="vXNN-kxoZwtLQ404BlhF-3" value="N" style="text;html=1;align=center;verticalAlign=middle;resizable=0;points=[];autosize=1;" parent="6m-d3EnT1Q0BvzGFajZ4-1" vertex="1">
          <mxGeometry x="662" y="637" width="20" height="20" as="geometry" />
        </mxCell>
        <mxCell id="vXNN-kxoZwtLQ404BlhF-4" value="M" style="text;html=1;align=center;verticalAlign=middle;resizable=0;points=[];autosize=1;" parent="6m-d3EnT1Q0BvzGFajZ4-1" vertex="1">
          <mxGeometry x="577" y="707" width="30" height="20" as="geometry" />
        </mxCell>
        <mxCell id="vXNN-kxoZwtLQ404BlhF-5" value="N" style="text;html=1;align=center;verticalAlign=middle;resizable=0;points=[];autosize=1;" parent="6m-d3EnT1Q0BvzGFajZ4-1" vertex="1">
          <mxGeometry x="413" y="534" width="20" height="20" as="geometry" />
        </mxCell>
        <mxCell id="vXNN-kxoZwtLQ404BlhF-8" value="M" style="text;html=1;align=center;verticalAlign=middle;resizable=0;points=[];autosize=1;" parent="6m-d3EnT1Q0BvzGFajZ4-1" vertex="1">
          <mxGeometry x="408" y="630" width="30" height="20" as="geometry" />
        </mxCell>
        <mxCell id="vXNN-kxoZwtLQ404BlhF-9" value="N" style="text;html=1;align=center;verticalAlign=middle;resizable=0;points=[];autosize=1;" parent="6m-d3EnT1Q0BvzGFajZ4-1" vertex="1">
          <mxGeometry x="150" y="617" width="20" height="20" as="geometry" />
        </mxCell>
        <mxCell id="vXNN-kxoZwtLQ404BlhF-10" value="M" style="text;html=1;align=center;verticalAlign=middle;resizable=0;points=[];autosize=1;" parent="6m-d3EnT1Q0BvzGFajZ4-1" vertex="1">
          <mxGeometry x="210" y="680" width="30" height="20" as="geometry" />
        </mxCell>
        <mxCell id="iDC6D_dFyTPEeD8r1e6W-0" value="" style="endArrow=none;html=1;entryX=0;entryY=0.5;entryDx=0;entryDy=0;" edge="1" parent="6m-d3EnT1Q0BvzGFajZ4-1" target="6m-d3EnT1Q0BvzGFajZ4-4">
          <mxGeometry width="50" height="50" relative="1" as="geometry">
            <mxPoint x="-120" y="530" as="sourcePoint" />
            <mxPoint x="490" y="590" as="targetPoint" />
          </mxGeometry>
        </mxCell>
        <mxCell id="iDC6D_dFyTPEeD8r1e6W-1" value="kommer fra" style="rhombus;whiteSpace=wrap;html=1;" vertex="1" parent="6m-d3EnT1Q0BvzGFajZ4-1">
          <mxGeometry x="-200" y="490" width="80" height="80" as="geometry" />
        </mxCell>
        <mxCell id="iDC6D_dFyTPEeD8r1e6W-2" value="" style="endArrow=none;html=1;entryX=0;entryY=0.5;entryDx=0;entryDy=0;" edge="1" parent="6m-d3EnT1Q0BvzGFajZ4-1" target="iDC6D_dFyTPEeD8r1e6W-1">
          <mxGeometry width="50" height="50" relative="1" as="geometry">
            <mxPoint x="-300" y="530" as="sourcePoint" />
            <mxPoint x="490" y="590" as="targetPoint" />
          </mxGeometry>
        </mxCell>
        <mxCell id="iDC6D_dFyTPEeD8r1e6W-3" value="Bedriftsnavn" style="ellipse;whiteSpace=wrap;html=1;" vertex="1" parent="6m-d3EnT1Q0BvzGFajZ4-1">
          <mxGeometry x="-620" y="430" width="120" height="40" as="geometry" />
        </mxCell>
        <mxCell id="iDC6D_dFyTPEeD8r1e6W-4" value="Bedrift" style="rounded=0;whiteSpace=wrap;html=1;" vertex="1" parent="6m-d3EnT1Q0BvzGFajZ4-1">
          <mxGeometry x="-420" y="500" width="120" height="60" as="geometry" />
        </mxCell>
        <mxCell id="iDC6D_dFyTPEeD8r1e6W-7" value="&lt;u&gt;Bedriftsnr/ORG.nr&lt;/u&gt;" style="ellipse;whiteSpace=wrap;html=1;" vertex="1" parent="6m-d3EnT1Q0BvzGFajZ4-1">
          <mxGeometry x="-380" y="390" width="120" height="50" as="geometry" />
        </mxCell>
        <mxCell id="iDC6D_dFyTPEeD8r1e6W-10" value="" style="endArrow=none;html=1;entryX=1;entryY=1;entryDx=0;entryDy=0;exitX=0;exitY=0;exitDx=0;exitDy=0;" edge="1" parent="6m-d3EnT1Q0BvzGFajZ4-1" source="iDC6D_dFyTPEeD8r1e6W-4" target="iDC6D_dFyTPEeD8r1e6W-3">
          <mxGeometry width="50" height="50" relative="1" as="geometry">
            <mxPoint x="-290" y="640" as="sourcePoint" />
            <mxPoint x="-310" y="580" as="targetPoint" />
          </mxGeometry>
        </mxCell>
        <mxCell id="iDC6D_dFyTPEeD8r1e6W-11" value="" style="endArrow=none;html=1;entryX=0.5;entryY=1;entryDx=0;entryDy=0;exitX=0.75;exitY=0;exitDx=0;exitDy=0;" edge="1" parent="6m-d3EnT1Q0BvzGFajZ4-1" source="iDC6D_dFyTPEeD8r1e6W-4" target="iDC6D_dFyTPEeD8r1e6W-7">
          <mxGeometry width="50" height="50" relative="1" as="geometry">
            <mxPoint x="-280" y="650" as="sourcePoint" />
            <mxPoint x="-300" y="590" as="targetPoint" />
          </mxGeometry>
        </mxCell>
        <mxCell id="iDC6D_dFyTPEeD8r1e6W-13" value="1" style="text;html=1;align=center;verticalAlign=middle;resizable=0;points=[];autosize=1;" vertex="1" parent="6m-d3EnT1Q0BvzGFajZ4-1">
          <mxGeometry x="-220" y="510" width="20" height="20" as="geometry" />
        </mxCell>
        <mxCell id="iDC6D_dFyTPEeD8r1e6W-14" value="N" style="text;html=1;align=center;verticalAlign=middle;resizable=0;points=[];autosize=1;" vertex="1" parent="6m-d3EnT1Q0BvzGFajZ4-1">
          <mxGeometry x="-120" y="510" width="20" height="20" as="geometry" />
        </mxCell>
        <mxCell id="iDC6D_dFyTPEeD8r1e6W-18" value="" style="shape=requiredInterface;html=1;verticalLabelPosition=bottom;rotation=30;" vertex="1" parent="6m-d3EnT1Q0BvzGFajZ4-1">
          <mxGeometry x="464" y="300" width="20" height="20" as="geometry" />
        </mxCell>
        <mxCell id="iDC6D_dFyTPEeD8r1e6W-20" value="" style="shape=requiredInterface;html=1;verticalLabelPosition=bottom;rotation=135;" vertex="1" parent="6m-d3EnT1Q0BvzGFajZ4-1">
          <mxGeometry x="277.5" y="310" width="20" height="20" as="geometry" />
        </mxCell>
        <mxCell id="iDC6D_dFyTPEeD8r1e6W-21" value="" style="shape=requiredInterface;html=1;verticalLabelPosition=bottom;rotation=90;" vertex="1" parent="6m-d3EnT1Q0BvzGFajZ4-1">
          <mxGeometry x="380.57" y="321.73" width="18.86" height="20" as="geometry" />
        </mxCell>
      </root>
    </mxGraphModel>
  </diagram>
</mxfile>
